<svg width="26" height="27" viewBox="0 0 26 27" xmlns="http://www.w3.org/2000/svg"><title>add user</title><g fill="none" fill-rule="evenodd"><path d="M19.77 14.375a5.73 5.73 0 1 0 .001 11.459 5.73 5.73 0 0 0 0-11.459zm-6.079 2.238c-.359-.213-.589-.553-.726-.921-.076-.84-.047-1.426-.047-2.193.38-.2 1.062-1.471 1.177-2.545.299-.025.77-.317.908-1.468.075-.618-.221-.966-.401-1.076.486-1.463 1.496-5.989-1.87-6.457-.346-.608-1.233-.916-2.385-.916-4.612.085-5.168 3.482-4.157 7.373-.18.11-.475.457-.401 1.075.138 1.152.609 1.444.908 1.468C6.81 12.027 7.52 13.3 7.9 13.5c0 .767.029 1.353-.047 2.192C6.94 18.145.784 17.456.5 22.187h10.938" stroke="#4990E2"/><path fill="#4990E2" d="M11.438 21.667v1.041H13l-.334-1.041z"/><path d="M19.77 16.98v6.25m3.126-3.126h-6.25" stroke="#4990E2"/></g></svg>