<svg width="15" height="16" viewBox="0 0 15 16" xmlns="http://www.w3.org/2000/svg"><title>administrator</title><g fill="none" fill-rule="evenodd"><path d="M6.514 15.504c0-1.258.816-2.652.816-2.652l-.544-.442c0-.408.714-.85.714-.85s.714.442.714.85l-.544.442s.816 1.36.816 2.652H6.514z" fill="#4990E2"/><path d="M-1 0h17v17H-1z"/><path stroke="#4990E2" d="M5.97 10.846l1.53.85 1.53-.85m-1.428.85L8.86 13.26l1.122-1.36m-2.584-.204L6.14 13.26 5.018 11.9"/><path d="M9.166 11.05c-.034-.544-.034-.918-.034-1.428.238-.136.68-.952.782-1.666.204 0 .51-.204.578-.952.034-.408-.136-.646-.272-.714.34-.952.986-3.91-1.19-4.216-.238-.408-.816-.612-1.564-.612C4.44 1.53 4.1 3.74 4.746 6.29c-.102.068-.306.306-.272.714.102.748.408.952.578.952.068.714.544 1.53.782 1.666 0 .51.034.884-.034 1.428-.544 1.598-4.59 1.156-4.76 4.25h12.92c-.17-3.094-4.182-2.652-4.794-4.25z" stroke="#4990E2"/></g></svg>