<svg width="30" height="29" viewBox="0 0 30 29" xmlns="http://www.w3.org/2000/svg"><title>chat</title><g fill="none" fill-rule="evenodd"><path d="M0 0h30v30H0z"/><path d="M11.4.6C5.46.6.6 4.86.6 10.14c0 2.7 1.26 5.16 3.3 6.9-.54 2.4-3.42 3.36-3.24 4.02 1.8 1.02 6.66-.96 8.22-1.62.78.18 1.62.24 2.46.24 5.94 0 10.8-4.26 10.8-9.54C22.14 4.86 17.34.6 11.4.6z" stroke="#FFF"/><path d="M8.34 19.68c1.38 3.84 5.46 6.6 10.26 6.6.84 0 1.68-.12 2.46-.24 1.56.72 6.42 2.64 8.22 1.62.18-.66-2.64-1.68-3.24-4.02 2.04-1.74 3.3-4.2 3.3-6.9 0-4.26-3.18-7.92-7.56-9.12" stroke="#FFF"/></g></svg>