<svg width="30" height="32" viewBox="0 0 30 32" xmlns="http://www.w3.org/2000/svg"><title>user male</title><path d="M18.512 21.874c-.107-1.18-.066-2.003-.066-3.08.534-.28 1.491-2.067 1.653-3.577.42-.034 1.082-.444 1.276-2.062.105-.868-.31-1.357-.564-1.51.683-2.056 2.103-8.415-2.625-9.072-.487-.854-1.733-1.287-3.352-1.287-6.479.12-7.26 4.892-5.84 10.358-.253.154-.668.643-.564 1.511.194 1.618.856 2.028 1.276 2.062.16 1.509 1.156 3.296 1.692 3.577 0 1.077.04 1.9-.067 3.08C10.049 25.32 1.4 24.354 1 31h27.805c-.399-6.647-9.011-5.68-10.293-9.126z" stroke="#FFF" fill="none"/></svg>