<svg width="30" height="32" viewBox="0 0 30 32" xmlns="http://www.w3.org/2000/svg"><title>collaborator</title><g stroke="#FFF" fill="none" fill-rule="evenodd"><path d="M18.488 21.854c-.073-1.171-.073-1.976-.073-3.074.512-.292 1.463-2.048 1.683-3.585.439 0 1.097-.439 1.243-2.049.074-.878-.292-1.39-.585-1.536.732-2.049 2.122-8.415-2.56-9.073-.513-.878-1.757-1.317-3.367-1.317-6.512.146-7.244 4.902-5.853 10.39-.22.146-.659.658-.586 1.536.22 1.61.878 2.05 1.244 2.05.146 1.536 1.17 3.292 1.683 3.584 0 1.098.073 1.903-.073 3.074C10.074 25.293 1.366 24.34 1 31h27.805c-.366-6.659-9-5.707-10.317-9.146z"/><path d="M17.829 28.073h5.854V31h-5.854z"/></g></svg>