<svg width="19" height="19" viewBox="0 0 19 19" xmlns="http://www.w3.org/2000/svg"><title>money</title><g transform="translate(1 1)" stroke="#FFF" fill="none" fill-rule="evenodd"><ellipse cx="12.042" cy="1.771" rx="4.958" ry="1.771"/><path d="M7.083 2.125V4.25c0 .978 2.22 1.77 4.959 1.77C14.78 6.02 17 5.229 17 4.25V2.125"/><path d="M9.757 8.301c.684.127 1.46.199 2.285.199C14.78 8.5 17 7.707 17 6.73V4.603m-9.917.001v1.512"/><path d="M9.926 10.81a12.82 12.82 0 0 0 2.116.17c2.739 0 4.958-.793 4.958-1.772V7.083"/><path d="M9.898 13.285c.649.111 1.376.173 2.144.173 2.739 0 4.958-.792 4.958-1.77V9.562"/><ellipse cx="4.958" cy="7.792" rx="4.958" ry="1.771"/><path d="M0 8.146v2.125c0 .978 2.22 1.77 4.958 1.77 2.74 0 4.959-.792 4.959-1.77V8.146"/><path d="M0 10.625v2.125c0 .978 2.22 1.77 4.958 1.77 2.74 0 4.959-.792 4.959-1.77v-2.125"/><path d="M0 13.104v2.125C0 16.207 2.22 17 4.958 17c2.74 0 4.959-.793 4.959-1.77v-2.126"/></g></svg>