<svg width="17" height="16" viewBox="0 0 17 16" xmlns="http://www.w3.org/2000/svg"><title>phone copy 2</title><path d="M10.412 11.13s1.237-.708 1.561-.878c.323-.171.657-.214.86-.09a235 235 0 0 1 3.109 2.058c.217.153.322.588.023 1.014-.298.427-1.672 2.113-2.254 2.095-.583-.019-3.008-.072-7.58-4.645-4.571-4.572-4.625-6.997-4.644-7.58C1.47 2.52 3.155 1.147 3.581.848c.427-.297.863-.185 1.015.024.172.239 1.87 2.814 2.057 3.109.128.201.081.538-.09.86a97.31 97.31 0 0 1-.877 1.562s.499.85 2.187 2.539c1.688 1.688 2.54 2.188 2.54 2.188z" stroke="#FFF" fill="none"/></svg>