<svg width="17" height="17" viewBox="0 0 17 17" xmlns="http://www.w3.org/2000/svg"><title>user male circle</title><g transform="translate(1 1)" stroke="#FFF" fill="none" fill-rule="evenodd"><circle cx="7.5" cy="7.5" r="7.5"/><path d="M8.932 10.7c-.041-.499-.025-.847-.025-1.302.203-.119.568-.874.63-1.511.16-.015.411-.188.485-.872.04-.367-.118-.573-.215-.638.26-.869.801-3.555-1-3.833C8.622 2.183 8.147 2 7.531 2c-2.467.05-2.765 2.067-2.224 4.377-.096.065-.254.271-.215.638.074.684.326.857.486.872.061.637.44 1.392.644 1.51 0 .456.016.804-.025 1.303-.351 1.048-2.156 1.13-3.197 2.14 1.088 1.216 2.852 2.086 4.714 2.086 1.861 0 4.05-1.63 4.413-2.076-1.034-1.02-2.843-1.099-3.195-2.15z"/></g></svg>