<svg width="18" height="19" viewBox="0 0 18 19" xmlns="http://www.w3.org/2000/svg"><title>collaborator</title><path d="M10.91 12.817c-.042-.663-.042-1.12-.042-1.741.29-.166.83-1.161.954-2.032.249 0 .622-.249.705-1.161.041-.498-.166-.788-.332-.87.415-1.162 1.203-4.77-1.451-5.142-.29-.498-.995-.747-1.907-.747-3.69.083-4.105 2.778-3.317 5.888-.125.083-.374.373-.332.87.124.913.497 1.162.705 1.162.083.87.663 1.866.953 2.032 0 .622.042 1.078-.041 1.741C6.14 14.766 1.207 14.227 1 18h15.756c-.207-3.773-5.1-3.234-5.846-5.183z" stroke="#4990E2" fill="none"/></svg>