<svg width="21" height="18" viewBox="0 0 21 18" xmlns="http://www.w3.org/2000/svg"><title>talk</title><g stroke="#FFF" fill="none" fill-rule="evenodd"><path d="M10.603 12.447c-.058-.647-.036-1.098-.036-1.69.293-.153.818-1.133.907-1.96.23-.02.593-.244.7-1.131.057-.477-.171-.745-.31-.829.375-1.127 1.153-4.614-1.44-4.974-.266-.469-.95-.706-1.838-.706-3.553.065-3.981 2.683-3.202 5.68-.139.084-.367.352-.31.829.107.887.47 1.112.7 1.13.088.828.634 1.808.928 1.962 0 .59.022 1.042-.037 1.69-.703 1.89-5.446 1.359-5.665 5.004h15.248c-.219-3.645-4.942-3.115-5.645-5.005z"/><path d="M13.443 3.381a5.448 5.448 0 0 1 2.002-.375c2.66 0 4.815 1.862 4.815 4.159 0 2.297-2.156 4.159-4.815 4.159a5.54 5.54 0 0 1-1.31-.156s-.834 1.037-2.191 1.031c.656-.932.655-1.68.655-1.68a4.782 4.782 0 0 1-.3-.206"/></g></svg>