<svg width="19" height="25" viewBox="0 0 19 25" xmlns="http://www.w3.org/2000/svg"><title>txt copy 3</title><g fill="none" fill-rule="evenodd"><path d="M-3 0h25v25H-3z"/><path stroke="#FFF" d="M18 7.5h-6.5V1"/><path stroke="#FFF" d="M18.5 24.5H.5V.5h11l7 7z"/><path d="M5.607 13.104H4.58v-.832h2.966v.832H6.517V18h-.91zM10.24 18l-.434-1.198c-.11-.323-.212-.637-.323-1.011h-.026c-.11.373-.204.713-.297 1.028L8.769 18h-.91l1.115-2.924-1.072-2.804h.944l.407 1.181c.102.28.187.57.298.918h.017c.111-.374.187-.638.272-.935l.374-1.165h.909l-1.096 2.822L11.182 18h-.943zm2.234-4.896h-1.028v-.832h2.966v.832h-1.028V18h-.91z" fill="#FFF"/></g></svg>