<svg width="21" height="27" viewBox="0 0 21 27" xmlns="http://www.w3.org/2000/svg"><title>xls copy 2</title><g fill="none" fill-rule="evenodd"><path stroke="#FFF" d="M19.23 8.292h-6.772V1.52"/><path stroke="#FFF" d="M19.75 26H1V1h11.458l7.292 7.292z"/><path d="M7.838 19.23l-.452-1.249a25.207 25.207 0 0 1-.336-1.053h-.027c-.115.39-.212.743-.31 1.071l-.407 1.23H5.36l1.16-3.046-1.115-2.921h.982l.425 1.23c.107.293.195.594.31.957h.018c.115-.39.195-.664.283-.974l.39-1.213h.947l-1.142 2.94 1.204 3.027h-.983zm1.541-5.968h.947v5.17h1.594v.797H9.38v-5.967zm3.091 4.958c.22.133.61.239.92.239.584 0 .903-.337.903-.833 0-.478-.292-.752-.779-1.089-.663-.424-1.124-1.018-1.124-1.664 0-.93.628-1.664 1.744-1.664.38 0 .726.115.885.212l-.168.814a1.369 1.369 0 0 0-.735-.203c-.54 0-.796.362-.796.726 0 .46.239.673.85 1.062.752.496 1.053 1.072 1.053 1.709 0 1.071-.761 1.752-1.833 1.752-.443 0-.894-.123-1.08-.248l.16-.813z" fill="#FFF"/></g></svg>