<svg width="47" height="43" viewBox="0 0 47 43" xmlns="http://www.w3.org/2000/svg"><title>banknotes</title><g transform="translate(1 2)" stroke="#2185D5" fill="none" fill-rule="evenodd"><path stroke-width="1.997" d="M44.651 17.674H5.581V40h39.07V17.674z"/><path d="M35.883 17.674c3.3 0 3.468 3.453 4.377 4.362.908.91 4.391 1.143 4.391 3.323M14.35 17.674c-3.3 0-3.468 3.453-4.378 4.362-.91.91-4.39 1.143-4.39 3.323M38.557 40c2.293 0 2.41-2.4 3.042-3.033.632-.63 3.052-.792 3.052-2.307M11.675 40c-2.293 0-2.41-2.4-3.042-3.033-.631-.63-3.052-.792-3.052-2.307" stroke-width="2"/><circle stroke-width="2" cx="38.605" cy="29.302" r="2.326"/><circle stroke-width="2" cx="11.628" cy="29.302" r="2.326"/><ellipse stroke-width="2" cx="25.116" cy="28.837" rx="7.442" ry="8.372"/><path stroke-width="1.997" d="M42.869 17.672L38.143.052.407 10.171 5.64 29.535"/><path d="M29.673 2.323c3.187-.855 4.244 2.437 5.359 3.08 1.113.643 4.536-.036 5.101 2.071M8.876 7.9c-3.188.855-2.456 4.234-3.097 5.348-.643 1.114-3.946 2.24-3.382 4.346" stroke-width="2"/><ellipse stroke-width="2" cx="35.314" cy="12.848" rx="2.326" ry="2.326"/><path d="M29.617 17.43a9.247 9.247 0 0 0-.263-3.464c-1.197-4.466-5.387-7.224-9.357-6.159-3.97 1.065-6.217 5.548-5.018 10.014" stroke-width="2"/></g></svg>