<svg width="48" height="42" viewBox="0 0 48 42" xmlns="http://www.w3.org/2000/svg"><title>briefcase</title><g transform="translate(1 1)" fill="none" fill-rule="evenodd"><path d="M43.81 5.714H1.905A1.905 1.905 0 0 0 0 7.62v30.476C0 39.147.853 40 1.905 40H43.81a1.905 1.905 0 0 0 1.904-1.905V7.62a1.905 1.905 0 0 0-1.904-1.905z" stroke="#2185D5" stroke-width="2"/><path d="M0 21.905c0 1.051.853 1.905 1.905 1.905H43.81a1.905 1.905 0 0 0 1.904-1.905M29.524 4.762V1.905A1.905 1.905 0 0 0 27.619 0h-9.524a1.905 1.905 0 0 0-1.905 1.905v2.857" stroke="#2185D5" stroke-width="2"/><ellipse fill="#2185D5" cx="22.857" cy="19.048" rx="1.905" ry="1.905"/></g></svg>