<svg width="50" height="50" viewBox="0 0 50 50" xmlns="http://www.w3.org/2000/svg"><title>cheap 2</title><g fill="none" fill-rule="evenodd"><path d="M24.908 1.183C11.688 1.183 1 11.872 1 25.092 1 38.312 11.688 49 24.908 49s23.909-10.688 23.909-23.908S38.128 1.183 24.908 1.183z" stroke="#FFF" stroke-width="2"/><path d="M33.347 30.576c0-4.64-3.798-5.906-7.454-6.75-2.954-.703-5.626-1.407-5.626-4.36 0-1.266.563-4.078 4.782-4.078 2.953 0 4.36 1.828 4.782 4.078h2.812c-.843-3.094-2.25-5.907-6.328-6.61V9.621h-2.813v3.094c-2.25.282-6.329 2.25-6.329 7.032 0 9.001 13.08 4.36 13.08 11.11 0 2.25-.985 4.36-5.345 4.36-4.36 0-5.625-3.375-5.625-5.203H16.47c.422 6.047 4.641 7.454 7.032 7.876v2.672h2.813V37.89c2.11-.141 7.032-1.688 7.032-7.314z" fill="#FFF"/></g></svg>