<svg width="42" height="43" viewBox="0 0 42 43" xmlns="http://www.w3.org/2000/svg"><title>conference</title><path d="M35.733 17.905c-.066-.73-.04-1.238-.04-1.905.33-.173.922-1.28 1.022-2.213.26-.022.67-.275.79-1.276.064-.538-.193-.84-.35-.935.423-1.272 1.302-5.206-1.623-5.613-.301-.529-1.073-.796-2.074-.796-4.009.073-4.492 3.026-3.614 6.409-.156.095-.413.397-.349.935.12 1 .53 1.255.79 1.276.1.933.716 2.039 1.047 2.213 0 .667.025 1.176-.041 1.906-.273.733-1.09 1.143-2.048 1.533-.717-4.102-5.26-3.688-6.01-5.7-.066-.73-.04-1.239-.04-1.906.33-.173.922-1.279 1.022-2.213.26-.022.67-.275.79-1.276.064-.537-.192-.84-.35-.935.423-1.271 1.302-5.206-1.623-5.612-.301-.53-1.072-.784-2.075-.784-4.008.074-4.491 3.014-3.613 6.396-.156.095-.413.398-.349.935.12 1.001.53 1.255.79 1.276.1.933.716 2.04 1.047 2.213 0 .667.025 1.176-.041 1.906-.749 2.013-5.313 1.598-6.033 5.701-.958-.39-1.775-.8-2.047-1.534-.067-.73-.043-1.24-.043-1.906.331-.173.947-1.28 1.047-2.213.26-.022.67-.275.79-1.276.064-.538-.193-.84-.35-.935.88-3.383.396-6.336-3.613-6.41-1.001 0-1.773.268-2.074.797-2.926.407-2.047 4.341-1.624 5.613-.157.095-.413.397-.349.935.12 1 .53 1.255.79 1.276.1.933.692 2.039 1.022 2.213 0 .667.025 1.176-.04 1.906C5.473 20.038 1.247 19.388 1 23.5v9.167s1.206 5.945 10.833 8.315v-.815c.27-4.474 5.9-3.823 6.763-6.143.071-.794.045-1.347.045-2.073-.36-.19-1.03-1.392-1.139-2.408-.282-.023-.728-.299-.859-1.388-.07-.584.21-.913.38-1.018-.956-3.679-.43-6.891 3.93-6.971 1.09 0 1.929.29 2.256.866 3.183.442 2.227 4.722 1.767 6.105.17.104.45.433.379 1.018-.13 1.09-.576 1.365-.86 1.388-.108 1.016-.752 2.219-1.112 2.408 0 .725-.027 1.279.044 2.073.865 2.32 6.471 1.669 6.74 6.143v.815C39.794 38.612 41 32.667 41 32.667V23.5c-.247-4.113-4.473-3.462-5.267-5.595z" stroke-width="2" stroke="#2185D5" fill="none"/></svg>