<?xml version="1.0" encoding="UTF-8" standalone="no"?>
<svg width="19px" height="20px" viewBox="0 0 19 20" version="1.1" xmlns="http://www.w3.org/2000/svg" xmlns:xlink="http://www.w3.org/1999/xlink">
    <!-- Generator: Sketch 40 (33762) - http://www.bohemiancoding.com/sketch -->
    <title>email</title>
    <desc>Created with Sketch.</desc>
    <defs></defs>
    <g id="LandingPage" stroke="none" stroke-width="1" fill="none" fill-rule="evenodd">
        <g id="Auth" transform="translate(-573.000000, -409.000000)" fill="#4ABDAC">
            <g id="Group-9" transform="translate(537.000000, 215.000000)">
                <g id="Group-Copy-5" transform="translate(25.000000, 184.000000)">
                    <g id="email" transform="translate(11.000000, 10.000000)">
                        <g id="Layer_1">
                            <path d="M18.4168,14.6996 L17.8056,14.6996 C17.74,14.6996 17.6788,14.7316 17.6416,14.7852 C17.2436,15.3564 16.7704,15.8996 16.2348,16.4 C15.7004,16.9004 15.1012,17.342 14.4532,17.714 C13.8064,18.0844 13.1112,18.3772 12.3864,18.5848 C11.6628,18.7912 10.8948,18.8956 10.1044,18.8956 C8.9116,18.8956 7.7636,18.7032 6.6924,18.3224 C5.626,17.9444 4.6756,17.3732 3.8668,16.6248 C3.0588,15.8776 2.4096,14.9356 1.9368,13.8252 C1.4628,12.714 1.2224,11.4048 1.2224,9.9336 C1.2224,8.7084 1.4492,7.5504 1.8972,6.492 C2.3444,5.4336 2.9732,4.4944 3.7664,3.7008 C4.5584,2.9088 5.5068,2.2756 6.5844,1.8184 C7.6608,1.362 8.8452,1.1304 10.1044,1.1304 C11.2256,1.1304 12.2832,1.3092 13.2488,1.6624 C14.2108,2.0148 15.0508,2.5152 15.7456,3.1492 C16.438,3.7824 16.9892,4.5552 17.3836,5.446 C17.7776,6.3372 17.9772,7.3284 17.9772,8.3924 C17.9772,9.3356 17.8124,10.2268 17.4868,11.0404 C17.1596,11.8588 16.7456,12.5732 16.2568,13.1648 C15.77,13.7544 15.2296,14.226 14.65,14.5676 C14.0832,14.9012 13.5364,15.0704 13.0252,15.0704 C12.7208,15.0704 12.4964,15.0108 12.3584,14.8932 C12.2184,14.7744 12.1368,14.6156 12.1084,14.4068 C12.0764,14.1768 12.1016,13.8988 12.1836,13.5812 C12.2692,13.2472 12.3916,12.8852 12.5484,12.5016 L15.496,4.8536 C15.5196,4.7924 15.5116,4.7228 15.474,4.6684 C15.4364,4.614 15.3748,4.5816 15.3092,4.5816 L14.7512,4.5816 C14.6672,4.5816 14.592,4.6344 14.5632,4.7132 L14.0784,6.0464 C13.806,5.492 13.3804,5.0408 12.8084,4.7024 C12.1068,4.2872 11.304,4.0768 10.4228,4.0768 C9.4508,4.0768 8.5484,4.3332 7.7408,4.838 C6.9428,5.3368 6.2536,5.9844 5.6928,6.7628 C5.1348,7.5368 4.6968,8.3896 4.3908,9.2988 C4.0844,10.208 3.9288,11.1008 3.9288,11.9516 C3.9288,12.506 4.0272,13.036 4.2216,13.5264 C4.416,14.0168 4.684,14.4488 5.0176,14.8096 C5.3528,15.1732 5.7588,15.466 6.2228,15.6792 C7.2408,16.1476 8.48,16.0796 9.704,15.66 C10.248,15.474 10.7452,15.1344 11.1872,14.6476 C11.2264,14.9688 11.3628,15.2472 11.5956,15.4796 C11.9428,15.8268 12.4056,16.0028 12.972,16.0028 C13.6416,16.0028 14.3408,15.7972 15.0496,15.3928 C15.7492,14.9932 16.3932,14.4416 16.9632,13.7532 C17.5308,13.0684 18.002,12.2596 18.3628,11.3488 C18.7248,10.436 18.908,9.4416 18.908,8.3936 C18.908,7.15 18.674,6.0048 18.2128,4.9912 C17.752,3.9788 17.1144,3.1072 16.318,2.4016 C15.5228,1.6972 14.5804,1.148 13.5172,0.7692 C12.4556,0.3916 11.3072,0.2 10.1044,0.2 C8.7744,0.2 7.498,0.4464 6.3108,0.932 C5.1248,1.4172 4.0716,2.1012 3.18,2.9648 C2.2892,3.8288 1.5776,4.8644 1.0644,6.0432 C0.5512,7.2224 0.2908,8.5316 0.2908,9.934 C0.2908,11.6364 0.5784,13.1296 1.1456,14.3724 C1.7128,15.614 2.4668,16.6512 3.3868,17.454 C4.3064,18.256 5.3664,18.8548 6.5372,19.2328 C7.7016,19.6092 8.9016,19.8 10.104,19.8 C10.932,19.8 11.7676,19.686 12.5868,19.4612 C13.4028,19.2368 14.1904,18.914 14.9288,18.5 C15.664,18.0876 16.356,17.5772 16.9864,16.984 C17.6168,16.3892 18.1556,15.7224 18.5876,15.0024 C18.6248,14.9408 18.6256,14.8636 18.59,14.8012 C18.5552,14.7384 18.4888,14.6996 18.4168,14.6996 L18.4168,14.6996 Z M13.612,7.1884 L11.7508,12.012 C11.5104,12.63 11.23,13.1444 10.9172,13.5412 C10.6036,13.9388 10.2752,14.2552 9.9404,14.482 C9.6072,14.7068 9.2584,14.862 8.9044,14.944 C8.0844,15.1356 7.2968,15.1148 6.6524,14.8356 C6.2896,14.6788 5.9724,14.458 5.7096,14.178 C5.4452,13.8976 5.2352,13.566 5.086,13.192 C4.9368,12.8192 4.8612,12.402 4.8612,11.9512 C4.8612,11.2316 4.9964,10.458 5.2628,9.6508 C5.5296,8.8416 5.9092,8.0812 6.3916,7.3924 C6.8712,6.7072 7.4568,6.1304 8.1316,5.6776 C8.7948,5.2332 9.53,5.0076 10.3176,5.0076 C10.638,5.0076 10.976,5.0464 11.3232,5.1224 C11.6648,5.1976 11.9948,5.3248 12.3032,5.4992 C12.6076,5.6724 12.8792,5.9024 13.1108,6.1828 C13.3276,6.4476 13.496,6.7856 13.612,7.1884 L13.612,7.1884 Z" id="Shape"></path>
                        </g>
                    </g>
                </g>
            </g>
        </g>
    </g>
</svg>