<?xml version="1.0" encoding="UTF-8" standalone="no"?>
<svg width="30px" height="31px" viewBox="0 0 30 31" version="1.1" xmlns="http://www.w3.org/2000/svg" xmlns:xlink="http://www.w3.org/1999/xlink">
    <!-- Generator: Sketch 40 (33762) - http://www.bohemiancoding.com/sketch -->
    <title>google plus</title>
    <desc>Created with Sketch.</desc>
    <defs></defs>
    <g id="LandingPage" stroke="none" stroke-width="1" fill="none" fill-rule="evenodd">
        <g id="Auth" transform="translate(-768.000000, -548.000000)">
            <g id="Group-9" transform="translate(537.000000, 215.000000)">
                <g id="Group-8" transform="translate(59.000000, 333.000000)">
                    <g id="google-plus" transform="translate(172.000000, 0.000000)">
                        <g id="Capa_1">
                            <g id="Group">
                                <circle id="XMLID_30_" fill="#DC4E41" cx="14.8932743" cy="15.1584956" r="14.8932743"></circle>
                                <g transform="translate(5.044248, 9.557522)" id="Shape">
                                    <path d="M0.140973451,6.26761062 C0.0881415929,8.8300885 1.85309735,11.2754867 4.28097345,12.0730088 C6.56787611,12.8413274 9.37964602,12.2665487 10.9014159,10.3080531 C12.0124779,8.93575221 12.2649558,7.10628319 12.1446903,5.39707965 C10.1861947,5.37955752 8.22769912,5.38539823 6.27212389,5.38831858 C6.26893805,6.0860177 6.27212389,6.78106195 6.27504425,7.47876106 C7.44769912,7.51115044 8.62061947,7.49628319 9.79327434,7.5199115 C9.49725664,8.53433628 8.82292035,9.47840708 7.79946903,9.84477876 C5.82345133,10.7155752 3.30212389,9.5779646 2.68035398,7.50504425 C1.92982301,5.52 3.15849558,3.12451327 5.18707965,2.54707965 C6.44495575,2.10451327 7.74079646,2.60283186 8.81707965,3.25672566 C9.36238938,2.74646018 9.87265487,2.20115044 10.3738938,1.65 C9.15106195,0.626814159 7.57964602,-0.000530973451 5.96415929,0.137256637 C2.79451327,0.174955752 0.0207079646,3.10115044 0.140973451,6.26761062 L0.140973451,6.26761062 Z" fill="#DC4E41"></path>
                                    <path d="M15.9562832,3.62867257 C15.9504425,4.21221239 15.9443363,4.79867257 15.9414159,5.3819469 C15.3549558,5.38778761 14.7716814,5.39070796 14.1881416,5.39362832 L14.1881416,7.14106195 C14.7716814,7.1439823 15.3581416,7.14690265 15.9414159,7.15300885 C15.9472566,7.73654867 15.9472566,8.31982301 15.9530973,8.90628319 C16.5337168,8.90628319 17.1172566,8.90336283 17.700531,8.90628319 C17.7037168,8.31982301 17.7063717,7.73654867 17.7124779,7.1500885 C18.2957522,7.14716814 18.8822124,7.14424779 19.4657522,7.14132743 L19.4657522,5.39389381 C18.8824779,5.39097345 18.2960177,5.3880531 17.7124779,5.38221239 C17.709292,4.79867257 17.7037168,4.21221239 17.700531,3.62893805 C17.1172566,3.62867257 16.5366372,3.62867257 15.9562832,3.62867257 L15.9562832,3.62867257 Z" fill="#DC4E41"></path>
                                    <g fill="#FFFFFF">
                                        <path d="M0.140973451,6.26761062 C0.0207079646,3.10115044 2.79424779,0.174955752 5.96389381,0.13699115 C7.57938053,-0.000796460177 9.15106195,0.626548673 10.3736283,1.64973451 C9.87212389,2.20115044 9.36185841,2.74619469 8.81681416,3.25646018 C7.74053097,2.60256637 6.44469027,2.10424779 5.18681416,2.54681416 C3.1579646,3.12451327 1.92929204,5.52 2.6800885,7.50477876 C3.30185841,9.57769912 5.82318584,10.7153097 7.79920354,9.84451327 C8.82238938,9.47814159 9.49699115,8.5340708 9.79300885,7.51964602 C8.62035398,7.49628319 7.44743363,7.51088496 6.27477876,7.47849558 C6.27185841,6.78079646 6.26893805,6.08575221 6.27185841,5.3880531 C8.22743363,5.38513274 10.1859292,5.37929204 12.1444248,5.39681416 C12.2646903,7.10628319 12.0124779,8.93575221 10.9011504,10.3077876 C9.37938053,12.2662832 6.56787611,12.8410619 4.28070796,12.0727434 C1.85336283,11.2754867 0.0881415929,8.8300885 0.140973451,6.26761062 L0.140973451,6.26761062 Z"></path>
                                        <path d="M15.9562832,3.62867257 L17.700531,3.62867257 C17.7037168,4.21221239 17.709292,4.79867257 17.7124779,5.3819469 C18.2957522,5.38778761 18.8822124,5.39070796 19.4657522,5.39362832 L19.4657522,7.14106195 C18.8824779,7.1439823 18.2960177,7.14690265 17.7124779,7.14982301 C17.7066372,7.73628319 17.7037168,8.31955752 17.700531,8.9060177 C17.1172566,8.90309735 16.5334513,8.9060177 15.9530973,8.9060177 C15.9475221,8.31955752 15.9475221,7.73628319 15.9414159,7.15274336 C15.3581416,7.14663717 14.7716814,7.1439823 14.1881416,7.14079646 L14.1881416,5.39336283 C14.7716814,5.39044248 15.3552212,5.38752212 15.9414159,5.38168142 C15.9443363,4.79867257 15.950177,4.21221239 15.9562832,3.62867257 L15.9562832,3.62867257 Z"></path>
                                    </g>
                                </g>
                            </g>
                        </g>
                    </g>
                </g>
            </g>
        </g>
    </g>
</svg>