<?xml version="1.0" encoding="UTF-8" standalone="no"?>
<svg width="21px" height="22px" viewBox="0 0 21 22" version="1.1" xmlns="http://www.w3.org/2000/svg" xmlns:xlink="http://www.w3.org/1999/xlink">
    <!-- Generator: Sketch 40 (33762) - http://www.bohemiancoding.com/sketch -->
    <title>guest</title>
    <desc>Created with Sketch.</desc>
    <defs></defs>
    <g id="LandingPage" stroke="none" stroke-width="1" fill="none" fill-rule="evenodd">
        <g id="Register-for-Teacher" transform="translate(-571.000000, -497.000000)" stroke="#4ABDAC">
            <g id="Group-Copy-3" transform="translate(561.000000, 488.000000)">
                <g id="guest" transform="translate(11.000000, 10.000000)">
                    <g id="Layer_1">
                        <path d="M11.7073171,13.902439 L11.7073171,11.8536585 C12.0487805,11.6585366 12.6341463,10.4878049 12.7317073,9.46341463 C13.0243902,9.46341463 13.4634146,9.17073171 13.5609756,8.09756098 C13.6097561,7.51219512 13.3658537,7.17073171 13.1707317,7.07317073 C13.6585366,5.70731707 14.5853659,1.46341463 11.4634146,1.02439024 C11.1219512,0.43902439 10.2926829,0.146341463 9.2195122,0.146341463 C4.87804878,0.243902439 4.3902439,3.41463415 5.31707317,7.07317073 C5.17073171,7.17073171 4.87804878,7.51219512 4.92682927,8.09756098 C5.07317073,9.17073171 5.51219512,9.46341463 5.75609756,9.46341463 C5.85365854,10.4878049 6.43902439,11.6585366 6.7804878,11.8536585 L6.7804878,13.902439 C5.95121951,16.195122 0.243902439,15.5609756 0,20 L18.5365854,20 C18.2926829,15.5609756 12.5853659,16.195122 11.7073171,13.902439 L11.7073171,13.902439 Z" id="Shape"></path>
                        <path d="M11.7073171,13.902439 C11.7073171,14.4878049 10.6341463,15.1219512 9.26829268,15.1219512 C7.90243902,15.1219512 6.82926829,14.5365854 6.82926829,13.902439" id="Shape"></path>
                    </g>
                </g>
            </g>
        </g>
    </g>
</svg>