<svg width="88" height="79" viewBox="0 0 88 79" xmlns="http://www.w3.org/2000/svg"><title>handshake</title><g stroke-width="2" stroke="#FFF" fill="none" fill-rule="evenodd"><path d="M45.97 7.447H17.126L1 3.507"/><path d="M53.675 21.772L42.029 26.25c-6.808 2.686-14.512.895-19.35-4.477-1.075-1.074-.716-2.865.717-3.402L56.004 2.433a11.919 11.919 0 0 1 12.184.895l.895 1.074c2.867 1.97 6.271 2.507 9.496 1.612L87 4.224m0 38.857l-7.167 1.075-1.97 1.97m-47.48 25.069c1.971 1.97 5.017 1.97 6.988 0l1.791-1.79c1.971-1.97 1.971-5.014 0-6.984-1.97-1.97-5.016-1.97-6.987 0l-1.792 1.79c-1.791 1.97-1.791 5.194 0 6.984z"/><path d="M23.575 64.39c1.97 1.97 5.017 1.97 6.988 0l1.791-1.79c1.971-1.97 1.971-5.014 0-6.984-1.97-1.97-5.017-1.97-6.987 0l-1.792 1.791c-1.97 1.97-1.97 5.014 0 6.984z"/><path d="M16.587 57.407c1.971 1.97 5.017 1.97 6.988 0l1.792-1.79c1.97-1.97 1.97-5.015 0-6.984-1.971-1.97-5.017-1.97-6.988 0l-1.792 1.79c-1.97 1.97-1.97 5.014 0 6.984z"/><path d="M9.6 50.423c1.97 1.97 5.017 1.97 6.988 0l1.791-1.79c1.971-1.97 1.971-5.014 0-6.984-1.97-1.97-5.017-1.97-6.987 0L9.6 43.439c-1.97 1.97-1.97 5.014 0 6.984zM54.212 22.31L76.25 44.334a5.942 5.942 0 0 1 0 8.416 5.95 5.95 0 0 1-8.42 0 5.942 5.942 0 0 1 0 8.416 5.95 5.95 0 0 1-8.422 0l-1.254-1.253a5.942 5.942 0 0 1 0 8.416 5.95 5.95 0 0 1-8.42 0l-1.255-1.253a5.942 5.942 0 0 1 0 8.416 5.95 5.95 0 0 1-8.42 0l-3.405-3.402"/></g></svg>