<svg width="15" height="16" viewBox="0 0 15 16" xmlns="http://www.w3.org/2000/svg"><title>Layer_1</title><g stroke="#FFF" fill="none" fill-rule="evenodd"><path d="M9.195 10.732V9.298c.24-.137.649-.957.717-1.674.205 0 .512-.204.58-.956.035-.41-.136-.648-.272-.717.341-.956.99-3.927-1.196-4.234-.239-.41-.82-.615-1.57-.615-3.04.069-3.38 2.288-2.732 4.85-.102.068-.307.307-.273.716.102.752.41.956.58.956.069.717.478 1.537.717 1.674v1.434C5.166 12.337 1.171 11.892 1 15h12.976c-.171-3.107-4.166-2.663-4.78-4.268z"/><path d="M9.195 10.732c0 .41-.751.853-1.707.853-.956 0-1.708-.41-1.708-.853"/></g></svg>