<svg width="13" height="16" viewBox="0 0 13 16" xmlns="http://www.w3.org/2000/svg"><title>lock</title><g fill="none" fill-rule="evenodd"><path d="M1.622 15A.624.624 0 0 1 1 14.378V6.91c0-.342.28-.622.622-.622h9.956c.342 0 .622.28.622.622v7.467c0 .342-.28.622-.622.622H1.622z" stroke="#FFF"/><path d="M10.022 6.289V4.422A3.412 3.412 0 0 0 6.6 1a3.412 3.412 0 0 0-3.422 3.422V6.29" stroke="#FFF"/><path d="M7.533 10.022A.917.917 0 0 0 6.6 9.09a.917.917 0 0 0-.933.933c0 .28.124.53.31.685v.87c0 .343.28.623.623.623.342 0 .622-.28.622-.622v-.871a.891.891 0 0 0 .311-.685z" fill="#FFF"/></g></svg>