<?xml version="1.0" encoding="UTF-8" standalone="no"?>
<svg width="30px" height="30px" viewBox="0 0 30 30" version="1.1" xmlns="http://www.w3.org/2000/svg" xmlns:xlink="http://www.w3.org/1999/xlink">
    <!-- Generator: Sketch 40 (33762) - http://www.bohemiancoding.com/sketch -->
    <title>mail ru</title>
    <desc>Created with Sketch.</desc>
    <defs></defs>
    <g id="LandingPage" stroke="none" stroke-width="1" fill="none" fill-rule="evenodd">
        <g id="Auth" transform="translate(-808.000000, -548.000000)">
            <g id="Group-9" transform="translate(537.000000, 215.000000)">
                <g id="Group-8" transform="translate(59.000000, 333.000000)">
                    <g id="mail-ru" transform="translate(212.000000, 0.000000)">
                        <g id="1473975791_mailru">
                            <g id="Page-1">
                                <g id="1473975791_mailru">
                                    <g id="g5274">
                                        <rect id="rect2987" fill="#168DE2" x="0" y="0" width="30" height="30" rx="15"></rect>
                                        <path d="M17.9194096,15.418601 C17.8188313,13.4600115 16.3645246,12.2819619 14.6082895,12.2819619 L14.5421671,12.2819619 C12.5155264,12.2819619 11.3917534,13.8756266 11.3917534,15.686074 C11.3917534,17.7127793 12.7512749,18.9931419 14.5345161,18.9931419 C16.5220399,18.9931419 17.8292725,17.5369065 17.9238632,15.8147259 L17.9193967,15.418601 L17.9194096,15.418601 L17.9194096,15.418601 Z M14.5520125,10.5287815 C15.9061422,10.5287815 17.1795142,11.1273897 18.1141772,12.064707 L18.1141772,12.068202 C18.1141772,11.6184025 18.4170382,11.2791499 18.8373075,11.2791499 L18.9437374,11.2784368 C19.6010107,11.2784368 19.7363753,11.9006587 19.7363753,12.0974911 L19.7393521,19.0927736 C19.6928558,19.5509553 20.2121048,19.7874998 20.4997994,19.4933516 C21.6232358,18.3389739 22.9668596,13.5588467 19.8014802,10.7898572 C16.8514914,8.207717 12.8931375,8.63304039 10.7880045,10.0841524 C8.54990209,11.6275994 7.11814798,15.0440881 8.50906391,18.2527013 C10.0254987,21.7522063 14.3644099,22.7960248 16.9433503,21.7547312 C18.249191,21.2277019 18.8521169,22.9927858 17.4959287,23.569638 C15.4469376,24.442304 9.7430609,24.354232 7.07876672,19.7386753 C5.27855983,16.6223875 5.37395318,11.1391514 10.1487593,8.29845076 C13.8010549,6.12460574 18.6167059,6.72627117 21.5203997,9.75874744 C24.5555993,12.9289109 24.3782638,18.8656098 21.4181642,21.1732912 C20.0767344,22.2220288 18.084291,21.2017594 18.0968616,19.6738154 L18.083223,19.1743228 C17.1492333,20.1010691 15.9061227,20.641802 14.551993,20.641802 C11.8765266,20.641802 9.52228477,18.2882916 9.52228477,15.6123587 C9.52228477,12.9106889 11.8765266,10.5287686 14.551993,10.5287686 L14.551993,10.5287686 L14.5520125,10.5287815 L14.5520125,10.5287815 Z" id="path24_3_" fill="#FFFFFF"></path>
                                    </g>
                                </g>
                            </g>
                        </g>
                    </g>
                </g>
            </g>
        </g>
    </g>
</svg>