<svg width="29" height="32" viewBox="0 0 29 32" xmlns="http://www.w3.org/2000/svg"><title>money bag</title><g fill="none" fill-rule="evenodd"><path d="M19.595 4.477c.47-.75 1.345-2.113 0-2.113s-2.892 1.022-3.9 0C14.014.59 13.14.59 11.997 2.227c-.673.955-1.749.955-3.094.955-2.824 0-2.219 1.159-1.344 1.977.403.41 2.891 2.523 2.555 6-4.438 1.023-9.01 6.75-9.01 11.727 0 6.41 3.563 8.114 13.448 8.114C24.436 31 28 29.295 28 22.886c0-5.386-4.841-10.568-9.817-12-.874-3.34 1.143-6.068 1.412-6.409z" stroke="#FFF"/><path d="M6.886 3.795c1.547 2.728 3.497 3.273 4.573 2.25 1.21-1.159 1.882-1.704 3.16-.068.672.818 1.815.546 2.622-.204 1.48-1.364 2.757-1.91 2.623-2.796m-9.817 8.046s3.63 2.25 8.136-.273c1.412-.818 4.034-3.477 7.464-1.568m-7.464 1.568c1.143-.477 4.438-1.364 6.791 1.16" stroke="#FFF"/><path d="M17.847 23.91c0-2.046-1.614-2.592-3.228-3-1.278-.342-2.488-.615-2.488-1.91 0-.545.202-1.773 2.017-1.773 1.278 0 1.883.818 2.085 1.773h1.21c-.336-1.364-.941-2.59-2.69-2.932v-1.432h-1.21V16c-1.009.136-2.757.955-2.757 3.136 0 3.955 5.648 1.91 5.648 4.91 0 1.022-.47 1.909-2.286 1.909-1.882 0-2.42-1.5-2.42-2.319h-1.21c.201 2.66 2.016 3.273 3.025 3.478v1.159h1.21v-1.16c.942-.068 3.094-.75 3.094-3.204z" fill="#FFF"/></g></svg>