<svg width="50" height="48" viewBox="0 0 50 48" xmlns="http://www.w3.org/2000/svg"><title>money box</title><path d="M25 8.704a7.093 7.093 0 0 0-7.09-7.09 7.089 7.089 0 0 0-7.092 7.09 6.95 6.95 0 0 0 .7 3.055M47.227 23.94h-1.775c-.925 0-1.363-.41-1.43-.83-.484-3.043-2.46-6.997-7.429-8.731-.048-2.752.566-4.738 1.762-7.968-2.779.697-5.848 2.21-7.666 6.218a27.458 27.458 0 0 0-6.521-.771c-5.984 0-10.497 1.815-14.11 4.627-3.263 2.541-5.313 6.796-5.07 12.6.184 4.377 3.233 7.718 5.572 9.588.337.267 1.009.693.657 1.78-.352 1.086-.985 2.602-.985 2.602a1.878 1.878 0 0 0 1.087 2.42l3.51 1.326a1.876 1.876 0 0 0 2.42-1.087s.467-1.216.847-2.23c.72-1.908 1.161-.36 6.072-.36 5.102 0 5.617-.996 6.15.567a31.89 31.89 0 0 0 .767 2.023 1.875 1.875 0 0 0 2.42 1.087l3.507-1.327a1.876 1.876 0 0 0 1.09-2.42l-.563-1.489s-.573-.981.654-1.648c2.446-1.33 4.29-3.35 5.486-5.844.254-.534.629-1.261 1.773-1.261h1.775c.978 0 1.773-.795 1.773-1.772v-5.322c0-.979-.795-1.777-1.773-1.777zM5.174 22.923S1 21.967 1 18.203c0-1.544.779-2.964 2.141-3.552" fill="none" stroke="#FFF" stroke-width="2"/></svg>