<svg width="50" height="50" viewBox="0 0 50 50" xmlns="http://www.w3.org/2000/svg"><title>money</title><g transform="translate(1 1)" stroke-width="2" stroke="#FFF" fill="none" fill-rule="evenodd"><ellipse cx="34" cy="5" rx="14" ry="5"/><path d="M20 6v6c0 2.761 6.266 5 14 5s14-2.239 14-5V6"/><path d="M27.55 23.439c1.93.358 4.124.561 6.45.561 7.734 0 14-2.239 14-5v-6"/><path d="M28.025 30.523c1.812.306 3.837.477 5.975.477 7.734 0 14-2.238 14-5v-6"/><path d="M27.948 37.51c1.831.314 3.884.49 6.052.49 7.734 0 14-2.238 14-5v-6"/><ellipse cx="14" cy="22" rx="14" ry="5"/><path d="M0 23v6c0 2.762 6.266 5 14 5s14-2.238 14-5v-6"/><path d="M0 30v6c0 2.762 6.266 5 14 5s14-2.238 14-5v-6"/><path d="M0 37v6c0 2.762 6.266 5 14 5s14-2.238 14-5v-6"/></g></svg>