<?xml version="1.0" encoding="UTF-8" standalone="no"?>
<svg width="22px" height="22px" viewBox="0 0 22 22" version="1.1" xmlns="http://www.w3.org/2000/svg" xmlns:xlink="http://www.w3.org/1999/xlink">
    <!-- Generator: Sketch 40 (33762) - http://www.bohemiancoding.com/sketch -->
    <title>password 1</title>
    <desc>Created with Sketch.</desc>
    <defs></defs>
    <g id="LandingPage" stroke="none" stroke-width="1" fill="none" fill-rule="evenodd">
        <g id="Auth" transform="translate(-572.000000, -500.000000)" stroke="#4ABDAC">
            <g id="Group-9" transform="translate(537.000000, 215.000000)">
                <g id="Group-Copy-3" transform="translate(25.000000, 276.000000)">
                    <g id="password-1" transform="translate(11.000000, 10.000000)">
                        <g id="Layer_1">
                            <path d="M11.4383333,10.39125 L2.20916667,19.6220833 C1.70375,20.1258333 0.884166667,20.1258333 0.379166667,19.6220833 L0.379166667,19.6220833 C-0.12625,19.11625 -0.12625,18.2970833 0.379166667,17.7920833 L9.61083333,8.56041667" id="Shape"></path>
                            <path d="M1.21708333,16.9354167 L0.228333333,15.9466667 C-0.277083333,15.44125 0.14375,15.0433333 0.650416667,14.53875 L1.15708333,14.0304167 C1.6625,13.525 2.05958333,13.1033333 2.565,13.61 L3.55541667,14.59875" id="Shape"></path>
                            <path d="M14.8683333,11.5841667 C13.3325,11.5841667 11.7629167,10.8616667 10.4520833,9.54916667 C9.295,8.39291667 8.58208333,7.00291667 8.44166667,5.63791667 C8.2875,4.12041667 8.81583333,2.70791667 9.97125,1.55416667 C10.9879167,0.5375 12.225,0 13.5483333,0 C15.0841667,0 16.65375,0.72375 17.9645833,2.03625 C19.1216667,3.19166667 19.8345833,4.58041667 19.9733333,5.94583333 C20.12875,7.46333333 19.6004167,8.87583333 18.4454167,10.0295833 C17.42875,11.0466667 16.1916667,11.5841667 14.8683333,11.5841667 L14.8683333,11.5841667 Z M13.6995833,2.38291667 C12.9554167,2.38291667 12.2779167,2.6825 11.6879167,3.27125 C11.0295833,3.92958333 10.7275,4.72375 10.8133333,5.56708333 C10.8966667,6.37833333 11.3379167,7.2225 12.0579167,7.9425 C12.8704167,8.75375 13.8141667,9.20125 14.7166667,9.20125 C15.4608333,9.20125 16.1383333,8.90166667 16.7283333,8.31208333 C17.3866667,7.65458333 17.68875,6.86041667 17.6025,6.01666667 C17.5191667,5.20541667 17.0783333,4.36125 16.3579167,3.6425 C15.5470833,2.83 14.6020833,2.38291667 13.6995833,2.38291667 L13.6995833,2.38291667 Z" id="Shape"></path>
                        </g>
                    </g>
                </g>
            </g>
        </g>
    </g>
</svg>