<svg width="22" height="22" viewBox="0 0 22 22" xmlns="http://www.w3.org/2000/svg"><title>skype copyrighted</title><g fill="none" fill-rule="evenodd"><path d="M1 1h20v20H1z"/><path d="M20.048 13.04c.14-.626.213-1.275.213-1.94 0-4.986-4.1-9.029-9.159-9.029a9.38 9.38 0 0 0-1.567.132A5.332 5.332 0 0 0 6.711 1.4C3.778 1.4 1.4 3.745 1.4 6.635c0 .968.266 1.872.73 2.65a8.965 8.965 0 0 0-.185 1.815c0 4.988 4.1 9.03 9.157 9.03.574 0 1.133-.052 1.679-.151a5.335 5.335 0 0 0 2.51.621c2.932 0 5.309-2.343 5.309-5.235 0-.836-.197-1.625-.552-2.326zm-4.249 2.376c-.424.592-1.05 1.06-1.86 1.392-.803.328-1.767.496-2.861.496-1.316 0-2.42-.228-3.28-.679a4.259 4.259 0 0 1-1.506-1.32c-.39-.552-.588-1.101-.588-1.631 0-.33.129-.618.382-.853.251-.232.573-.349.956-.349.314 0 .586.092.806.276.212.176.392.438.537.774a4.5 4.5 0 0 0 .527.92c.179.233.438.432.768.584.332.156.78.234 1.33.234.758 0 1.378-.159 1.844-.473.456-.307.678-.677.678-1.127 0-.357-.115-.638-.352-.856a2.52 2.52 0 0 0-.978-.532 19.883 19.883 0 0 0-1.681-.411c-.95-.201-1.757-.439-2.399-.708-.658-.276-1.187-.657-1.574-1.135-.394-.486-.592-1.093-.592-1.81 0-.682.209-1.298.622-1.827.408-.526 1.008-.937 1.778-1.217.759-.278 1.664-.417 2.686-.417.818 0 1.538.092 2.138.277.603.185 1.113.435 1.512.743.404.311.702.643.89.988.19.348.287.695.287 1.03 0 .322-.126.616-.376.871-.25.257-.567.386-.94.386-.339 0-.605-.08-.79-.24-.17-.15-.349-.384-.546-.718-.228-.43-.505-.767-.822-1.003-.307-.23-.823-.348-1.529-.348-.656 0-1.19.129-1.586.386-.383.247-.569.53-.569.866 0 .205.06.377.183.525.132.156.314.294.547.408.241.12.488.215.737.282.254.07.68.174 1.267.307.741.157 1.423.332 2.025.521.61.194 1.137.43 1.567.706a3.12 3.12 0 0 1 1.032 1.075c.247.433.371.969.371 1.592a3.39 3.39 0 0 1-.64 2.015z" stroke="#FFF"/></g></svg>