<?xml version="1.0" encoding="UTF-8" standalone="no"?>
<svg width="17px" height="20px" viewBox="0 0 17 20" version="1.1" xmlns="http://www.w3.org/2000/svg" xmlns:xlink="http://www.w3.org/1999/xlink">
    <!-- Generator: Sketch 40 (33762) - http://www.bohemiancoding.com/sketch -->
    <title>student female</title>
    <desc>Created with Sketch.</desc>
    <defs></defs>
    <g id="LandingPage" stroke="none" stroke-width="1" fill="none" fill-rule="evenodd">
        <g id="Auth" transform="translate(-566.000000, -306.000000)">
            <g id="Group-9" transform="translate(537.000000, 215.000000)">
                <g id="student-female" transform="translate(29.000000, 91.000000)">
                    <g id="Layer_1">
                        <path d="M1.74363246,10.2973913 L1.74363246,4.7826087 L0.87181623,4.7826087 L0.87181623,10.2973913 C0.364855092,10.4769565 0,10.9547826 0,11.5217391 C0,12.2417391 1.30772435,14.1304348 1.30772435,14.1304348 C1.30772435,14.1304348 2.61544869,12.2417391 2.61544869,11.5217391 C2.61544869,10.9547826 2.2505936,10.4769565 1.74363246,10.2973913 L1.74363246,10.2973913 Z" id="Shape" fill="#FFC107"></path>
                        <rect id="Rectangle-path" fill="#634239" x="5.23089738" y="7.39130435" width="6.97452984" height="7.82608696"></rect>
                        <path d="M8.7181623,16.9565217 C7.7622158,16.9565217 6.53862173,14.3478261 6.53862173,14.3478261 L6.53862173,11.7391304 L10.8977029,11.7391304 L10.8977029,14.3478261 C10.8977029,14.3478261 9.67367289,16.9565217 8.7181623,16.9565217" id="Shape" fill="#FDC88E"></path>
                        <path d="M12.6413353,10 C12.6413353,12.1613043 10.8850615,13.9130435 8.7181623,13.9130435 C6.55082715,13.9130435 4.79498927,12.1613043 4.79498927,10 L4.79498927,6.95652174 C4.79498927,4.79521739 12.6413353,3.63695652 12.6413353,6.95652174 L12.6413353,10 L12.6413353,10 Z M8.7181623,18.2608696 C10.6448762,18.2608696 10.8977029,14.3478261 10.8977029,14.3478261 C10.8977029,14.3478261 9.80488123,16.0869565 8.7181623,16.0869565 C7.63144337,16.0869565 6.53862173,14.3478261 6.53862173,14.3478261 C6.53862173,14.3478261 6.79144843,18.2608696 8.7181623,18.2608696 L8.7181623,18.2608696 Z" id="Shape" fill="#FFE1B2"></path>
                        <path d="M10.0258866,10 C10.0258866,9.76043478 10.2211735,9.56521739 10.4617948,9.56521739 C10.702416,9.56521739 10.8977029,9.76043478 10.8977029,10 C10.8977029,10.2395652 10.702416,10.4347826 10.4617948,10.4347826 C10.2211735,10.4347826 10.0258866,10.2395652 10.0258866,10 M6.53862173,10 C6.53862173,10.2395652 6.73390856,10.4347826 6.97452984,10.4347826 C7.21515112,10.4347826 7.41043796,10.2395652 7.41043796,10 C7.41043796,9.76043478 7.21515112,9.56521739 6.97452984,9.56521739 C6.73390856,9.56521739 6.53862173,9.76043478 6.53862173,10" id="Shape" fill="#545465"></path>
                        <g id="Group" transform="translate(0.871816, 0.000000)" fill="#455A64">
                            <path d="M11.7695191,6.95652174 L11.7695191,6.95652174 L15.6926921,4.7826087 L7.84634607,0 L0,4.7826087 L3.92317304,6.95652174 C3.92317304,4.79521739 11.7695191,3.63695652 11.7695191,6.95652174 L11.7695191,6.95652174 Z" id="Shape"></path>
                            <path d="M10.0258866,14.3478261 C10.0258866,14.3478261 9.77305994,17.3913043 7.84634607,17.3913043 C5.9196322,17.3913043 5.6668055,14.3478261 5.6668055,14.3478261 C5.6668055,14.3478261 0.87181623,15.2113043 0.87181623,20 L14.8208759,20 C14.8208759,15.2282609 10.0258866,14.3478261 10.0258866,14.3478261 L10.0258866,14.3478261 Z" id="Shape"></path>
                        </g>
                        <path d="M5.23089738,5.2173913 C3.81419601,5.2173913 3.05135681,6.84 3.05135681,6.84 C2.57011425,8.30521739 2.17954058,10.2017391 2.17954058,12.7326087 L5.23089738,14.7826087 L5.23089738,9.13043478 L10.4617948,6.08695652 L12.2054272,8.26086957 L12.2054272,14.7826087 L15.256784,12.173913 C15.256784,11.2295652 15.171346,8.77173913 14.3849678,6.70913043 C14.3849678,6.70913043 13.9490597,5.2173913 12.2054272,5.2173913 L5.23089738,5.2173913 L5.23089738,5.2173913 Z" id="Shape" fill="#7E5449"></path>
                        <path d="M12.6413353,6.95652174 C12.6413353,6.95652174 10.8977029,6.52173913 8.7181623,6.52173913 C6.53862173,6.52173913 4.79498927,6.95652174 4.79498927,6.95652174 C4.79498927,5.2173913 5.23089738,4.34782609 5.23089738,4.34782609 C5.23089738,4.34782609 5.83070695,3.47826087 8.82713933,3.47826087 C11.8240076,3.47826087 12.2054272,4.34782609 12.2054272,4.34782609 C12.2054272,4.34782609 12.6413353,5.2173913 12.6413353,6.95652174 L12.6413353,6.95652174 L12.6413353,6.95652174 Z" id="Shape" fill="#62808C"></path>
                    </g>
                </g>
            </g>
        </g>
    </g>
</svg>