<?xml version="1.0" encoding="UTF-8" standalone="no"?>
<svg width="15px" height="20px" viewBox="0 0 15 20" version="1.1" xmlns="http://www.w3.org/2000/svg" xmlns:xlink="http://www.w3.org/1999/xlink">
    <!-- Generator: Sketch 40 (33762) - http://www.bohemiancoding.com/sketch -->
    <title>teacher</title>
    <desc>Created with Sketch.</desc>
    <defs></defs>
    <g id="LandingPage" stroke="none" stroke-width="1" fill="none" fill-rule="evenodd">
        <g id="Auth" transform="translate(-733.000000, -306.000000)">
            <g id="Group-9" transform="translate(537.000000, 215.000000)">
                <g id="teacher" transform="translate(196.000000, 91.000000)">
                    <g id="Capa_1">
                        <g id="Group">
                            <path d="M5.03608696,2.26495652 L6.46656522,12.0162174 L3.73486957,8.86773913 C2.62791304,7.49821739 0.919217391,2.26495652 5.03608696,2.26495652 L5.03608696,2.26495652 Z" id="Shape" fill="#7E5449"></path>
                            <path d="M4.24930435,2.54621739 C4.89304348,1.31130435 8.23717391,0.858304348 10.1155652,2.0576087 C12.751913,3.74082609 12.5027391,6.76078261 11.2606087,9.07178261 C11.2566087,9.07921739 8.362,11.1102609 8.362,11.1102609 L4.24930435,2.54621739 L4.24930435,2.54621739 Z" id="Shape" fill="#7E5449"></path>
                            <path d="M9.48621739,11.7785217 L9.47065217,11.7785217 L9.47065217,11.1102609 L5.46521739,11.1102609 L5.46521739,11.7778261 C5.46521739,12.4318261 5.46247826,13.1426957 4.893,13.5726957 L4.893,19.9793913 L7.46791304,19.9793913 L10.0428261,19.9793913 L10.0428261,13.5626957 C9.48795652,13.1316087 9.48621739,12.426913 9.48621739,11.7785217 L9.48621739,11.7785217 Z" id="Shape" fill="#FFD7A3"></path>
                            <path d="M11.7594783,13.9712609 L11.6641304,13.9712609 C10.5774348,13.9712609 10.0333478,13.6825217 9.75678261,13.2684348 L7.46795652,14.6328696 L5.17913043,13.2684348 C4.90256522,13.6825217 4.35847826,13.9712609 3.27178261,13.9712609 L3.17643478,13.9712609 C1.43834783,13.9712609 0.0293043478,15.3802609 0.0293043478,17.1183913 L0.0293043478,19.121087 C0.0293043478,19.595087 0.413565217,19.9793913 0.887608696,19.9793913 L5.75130435,19.9793913 L6.7583913,19.9793913 L8.17743478,19.9793913 L9.75669565,19.9793913 L14.0482174,19.9793913 C14.5222609,19.9793913 14.9065217,19.595087 14.9065217,19.121087 L14.9065217,17.1183913 C14.9065652,15.3802609 13.4975652,13.9712609 11.7594783,13.9712609 L11.7594783,13.9712609 Z" id="Shape" fill="#BCA096"></path>
                            <path d="M9.47456522,14.5624783 C9.57895652,14.5909565 9.38686957,14.2689565 9.47456522,14.2763913 L10.0428261,13.5627391 C9.48795652,13.1316522 9.48617391,12.426913 9.48617391,11.7785217 L9.4706087,11.7785217 L9.4706087,11.1102609 L6.32347826,11.1102609 L5.46517391,11.3963478 C6.03743478,12.040087 7.5076087,14.026 9.47456522,14.5624783 L9.47456522,14.5624783 Z" id="Shape" fill="#FDC88E"></path>
                            <path d="M11.4733478,7.39095652 C11.4733478,9.68208696 9.19473913,12.5407826 7.46795652,12.5407826 C5.74117391,12.5407826 3.46256522,9.68208696 3.46256522,7.39095652 C3.46256522,5.09982609 5.25586957,4.24382609 7.46795652,4.24382609 C9.68004348,4.24382609 11.4733478,5.09982609 11.4733478,7.39095652 L11.4733478,7.39095652 Z" id="Shape" fill="#FFE1B2"></path>
                            <path d="M6.05352174,4.74908696 C6.05352174,4.74908696 3.87630435,5.41726087 3.48326087,7.77826087 C3.39195652,8.32678261 2.632,5.90786957 2.632,5.90786957 C2.632,5.90786957 3.06113043,4.00052174 3.15652174,3.95282609 C3.25186957,3.90513043 5.18308696,3.11834783 5.18308696,3.11834783 L5.76078261,3.61791304 L6.05352174,4.74908696 L6.05352174,4.74908696 Z" id="Shape" fill="#7E5449"></path>
                            <path d="M7.46795652,14.6328696 L5.17917391,13.1129565 L4.50769565,13.7843913 L6.03747826,15.9739565 C6.21630435,16.2153478 6.48773913,16.1105217 6.60969565,15.9739565 L7.46795652,14.6328696 L7.46795652,14.6328696 Z" id="Shape" fill="#E4EBF0"></path>
                            <path d="M7.46795652,14.6328696 L9.75673913,13.1129565 L10.4282174,13.7843913 L8.89843478,15.9739565 C8.7196087,16.2153478 8.44817391,16.1105217 8.32621739,15.9739565 L7.46795652,14.6328696 L7.46795652,14.6328696 Z" id="Shape" fill="#E4EBF0"></path>
                            <path d="M11.2347391,7.73291304 C11.6636087,7.6256087 11.9445652,7.85486957 11.9445652,8.30513043 C11.9445652,8.90117391 11.3678261,10.3614783 10.7615217,9.44952174 C10.1552174,8.53756522 11.2347391,7.73291304 11.2347391,7.73291304 L11.2347391,7.73291304 Z" id="Shape" fill="#FFE1B2"></path>
                            <ellipse id="Oval" fill="#E4EBF0" cx="7.46795652" cy="17.7788696" rx="0.286086957" ry="0.286086957"></ellipse>
                            <ellipse id="Oval" fill="#E4EBF0" cx="7.46795652" cy="16.4044348" rx="0.286086957" ry="0.286086957"></ellipse>
                            <ellipse id="Oval" fill="#E4EBF0" cx="7.47186957" cy="19.1532609" rx="0.286086957" ry="0.286086957"></ellipse>
                            <ellipse id="Oval" fill="#7E5449" cx="7.117" cy="1.76430435" rx="2.25830435" ry="1.76430435"></ellipse>
                            <path d="M5.96865217,9.60821739 C5.32778261,9.60821739 4.80634783,9.08678261 4.80634783,8.44591304 C4.80634783,7.80504348 5.32778261,7.2836087 5.96865217,7.2836087 C6.60952174,7.2836087 7.13095652,7.80504348 7.13095652,8.44591304 C7.13095652,9.08678261 6.60952174,9.60821739 5.96865217,9.60821739 L5.96865217,9.60821739 Z M5.96865217,7.56973913 C5.48552174,7.56973913 5.09247826,7.96278261 5.09247826,8.44591304 C5.09247826,8.92904348 5.48552174,9.32208696 5.96865217,9.32208696 C6.45178261,9.32208696 6.84482609,8.92904348 6.84482609,8.44591304 C6.84482609,7.96278261 6.45178261,7.56973913 5.96865217,7.56973913 L5.96865217,7.56973913 Z" id="Shape" fill="#545465"></path>
                            <path d="M8.96726087,9.60821739 C8.3263913,9.60821739 7.80495652,9.08678261 7.80495652,8.44591304 C7.80495652,7.80504348 8.3263913,7.2836087 8.96726087,7.2836087 C9.60813043,7.2836087 10.1295652,7.80504348 10.1295652,8.44591304 C10.1295652,9.08678261 9.60813043,9.60821739 8.96726087,9.60821739 L8.96726087,9.60821739 Z M8.96726087,7.56973913 C8.48413043,7.56973913 8.09108696,7.96278261 8.09108696,8.44591304 C8.09108696,8.92904348 8.48413043,9.32208696 8.96726087,9.32208696 C9.4503913,9.32208696 9.84343478,8.92904348 9.84343478,8.44591304 C9.84343478,7.96278261 9.4503913,7.56973913 8.96726087,7.56973913 L8.96726087,7.56973913 Z" id="Shape" fill="#545465"></path>
                            <path d="M8.1113913,8.2673913 L7.82530435,8.2673913 C7.82530435,8.07034783 7.665,7.91004348 7.46795652,7.91004348 C7.27091304,7.91004348 7.1106087,8.07034783 7.1106087,8.2673913 L6.82452174,8.2673913 C6.82452174,7.9126087 7.11313043,7.62395652 7.46795652,7.62395652 C7.82278261,7.62395652 8.1113913,7.91265217 8.1113913,8.2673913 L8.1113913,8.2673913 Z" id="Shape" fill="#545465"></path>
                            <path id="Shape" fill="#545465"></path>
                            <path id="Shape" fill="#545465"></path>
                            <path d="M6.91182609,2.81330435 C7.07256522,2.81330435 7.59447826,2.99391304 8.02104348,3.15217391 L8.05621739,3.0993913 C8.05621739,3.0993913 8.11508696,3.14565217 8.217,3.22582609 C8.45426087,3.31591304 8.6283913,3.38547826 8.6283913,3.38547826 L8.56147826,3.49704348 C9.6473913,4.3526087 11.7594348,4.83386957 11.7594348,6.47895652 C11.7594348,8.39226087 10.4281739,9.81317391 10.4281739,9.81317391 C11.3302609,6.31321739 9.34543478,5.63856522 7.20956522,5.24030435 C6.39091304,5.08765217 5.86273913,4.7206087 5.7673913,4.24378261 C5.67204348,3.767 6.62573913,2.81330435 6.91182609,2.81330435 L6.91182609,2.81330435 Z" id="Shape" fill="#7E5449"></path>
                            <path d="M3.70113043,7.73291304 C3.30169565,7.54347826 2.99130435,7.85486957 2.99130435,8.30513043 C2.99130435,8.90117391 3.56804348,10.3614783 4.17434783,9.44952174 C4.78065217,8.53756522 4.10334783,7.92365217 3.70113043,7.73291304 L3.70113043,7.73291304 Z" id="Shape" fill="#FFE1B2"></path>
                        </g>
                    </g>
                </g>
            </g>
        </g>
    </g>
</svg>