<?xml version="1.0" encoding="UTF-8" standalone="no"?>
<svg width="50px" height="50px" viewBox="0 0 50 50" version="1.1" xmlns="http://www.w3.org/2000/svg" xmlns:xlink="http://www.w3.org/1999/xlink">
    <!-- Generator: Sketch 40 (33762) - http://www.bohemiancoding.com/sketch -->
    <title>vk</title>
    <desc>Created with Sketch.</desc>
    <defs></defs>
    <g id="LandingPage" stroke="none" stroke-width="1" fill="none" fill-rule="evenodd">
        <g id="Page" transform="translate(-1120.000000, -7860.000000)">
            <g id="vk" transform="translate(1120.000000, 7860.000000)">
                <g id="Capa_1">
                    <g id="Group">
                        <circle id="XMLID_11_" fill="#4D76A1" cx="24.8221239" cy="24.8221239" r="24.8221239"></circle>
                        <path d="M23.8845133,35.7088496 L25.8327434,35.7088496 C25.8327434,35.7088496 26.4212389,35.6442478 26.7216814,35.320354 C26.9982301,35.0230088 26.9893805,34.4646018 26.9893805,34.4646018 C26.9893805,34.4646018 26.9513274,31.8504425 28.1646018,31.4654867 C29.3606195,31.0862832 30.8964602,33.9920354 32.5243363,35.109292 C33.7553097,35.9548673 34.690708,35.769469 34.690708,35.769469 L39.0433628,35.7088496 C39.0433628,35.7088496 41.320354,35.5685841 40.240708,33.7783186 C40.1522124,33.6318584 39.6119469,32.4539823 37.0044248,30.0336283 C34.2752212,27.5004425 34.640708,27.910177 37.9283186,23.5283186 C39.930531,20.8597345 40.7309735,19.230531 40.4809735,18.5327434 C40.2424779,17.8681416 38.7699115,18.0438053 38.7699115,18.0438053 L33.8690265,18.0743363 C33.8690265,18.0743363 33.5057522,18.0247788 33.2362832,18.1858407 C32.9730088,18.3438053 32.8035398,18.7119469 32.8035398,18.7119469 C32.8035398,18.7119469 32.0278761,20.7769912 30.9933628,22.5331858 C28.8110619,26.2389381 27.9384956,26.4345133 27.5818584,26.2044248 C26.7522124,25.6681416 26.959292,24.05 26.959292,22.9004425 C26.959292,19.309292 27.5039823,17.8119469 25.8986726,17.4243363 C25.3659292,17.2955752 24.9738938,17.2106195 23.6115044,17.1969027 C21.8628319,17.1787611 20.3827434,17.2022124 19.5446903,17.6128319 C18.9871681,17.8858407 18.5570796,18.4942478 18.8190265,18.5292035 C19.1429204,18.5725664 19.8765487,18.7269912 20.2654867,19.2566372 C20.7676991,19.939823 20.75,21.4743363 20.75,21.4743363 C20.75,21.4743363 21.0384956,25.7017699 20.0761062,26.2269912 C19.4154867,26.5871681 18.509292,25.8517699 16.5637168,22.489823 C15.5668142,20.7676991 14.8141593,18.8641593 14.8141593,18.8641593 C14.8141593,18.8641593 14.6690265,18.5084071 14.410177,18.3181416 C14.0960177,18.0876106 13.6570796,18.0141593 13.6570796,18.0141593 L9,18.0446903 C9,18.0446903 8.30088496,18.0641593 8.04424779,18.3681416 C7.8159292,18.6384956 8.02610619,19.1977876 8.02610619,19.1977876 C8.02610619,19.1977876 11.6721239,27.7278761 15.8004425,32.0265487 C19.5858407,35.9676991 23.8845133,35.7088496 23.8845133,35.7088496 L23.8845133,35.7088496 L23.8845133,35.7088496 Z" id="Shape" fill="#FFFFFF"></path>
                    </g>
                </g>
            </g>
        </g>
    </g>
</svg>