<svg width="42" height="43" viewBox="0 0 42 43" xmlns="http://www.w3.org/2000/svg"><title>wallet</title><g fill="none" fill-rule="evenodd"><path d="M36 11H6c-3.076 0-5 3-5 5v21.384A4.615 4.615 0 0 0 5.616 42h30.768A4.616 4.616 0 0 0 41 37.384V15.846C41 13.299 38.549 11 36 11z" stroke="#FFF" stroke-width="2"/><path d="M33 8V4.658c0-3.331-.719-4.292-4.852-3.202-3.036.801-20.801 5.726-20.801 5.726-5.471 2.062-6.306 3.817-6.306 7.816L1 17.453" stroke="#FFF" stroke-width="2"/><path d="M34.502 29a2.5 2.5 0 1 1-.003-5.001A2.5 2.5 0 0 1 34.502 29z" fill="#FFF"/></g></svg>